<svg width="511" height="360" viewBox="0 0 511 360" fill="none" xmlns="http://www.w3.org/2000/svg">
<path d="M9.26563 87.16H8.90563C8.54563 87.04 7.94563 86.68 7.94563 85.6C7.94563 85.36 8.06563 85.12 8.06563 84.76C8.18562 82.84 8.54563 78.88 6.86563 75.76C5.42563 75.4 4.22562 75.16 3.26563 74.8C1.34563 74.08 0.385625 73.36 0.385625 72.4C0.145625 71.56 0.625625 70.96 1.46563 70.6C3.02563 70 6.26563 70.72 8.30563 73.6L11.1856 74.08C12.0256 74.08 12.9856 74.32 13.9456 74.32C19.9456 62.68 29.4256 44.8 36.2656 35.68C36.6256 35.2 37.4656 35.08 37.9456 35.44C38.5456 35.8 38.5456 36.64 38.1856 37.12C31.5856 45.88 22.4656 63.04 16.4656 74.56C24.2656 75.16 33.0256 74.8 40.4656 74.2C46.5856 62.8 55.1056 47.68 66.5056 28.6C66.8656 28.12 67.5856 27.88 68.1856 28.24C68.7856 28.6 68.9056 29.32 68.6656 29.8C57.7456 48.04 49.4656 62.8 43.4656 73.84C49.4656 73.24 54.3856 72.4 56.6656 71.8C57.2656 71.56 57.9856 71.92 58.1056 72.52C58.2256 73.24 57.9856 73.84 57.2656 74.08C54.3856 74.92 48.5056 75.88 42.0256 76.48L36.5056 86.92C31.3456 96.76 28.3456 103.24 26.9056 106.72L28.2256 105.28L28.3456 105.04C28.8256 104.56 29.5456 104.44 30.0256 104.92C30.5056 105.4 30.6256 106.12 30.1456 106.6V106.72C27.3856 109.96 25.9456 111.4 24.7456 111.4C24.2656 111.4 23.9056 111.16 23.5456 110.8C23.3056 110.2 23.4256 109.48 23.9056 107.92L25.8256 103.36C27.6256 99.28 30.2656 93.64 33.6256 87.16L39.1456 76.72H37.7056C29.5456 77.32 21.7456 77.44 15.2656 76.84C13.9456 79.6 12.7456 81.88 11.9056 83.44L10.7056 85.84C10.4656 86.32 9.98563 87.16 9.26563 87.16ZM9.62563 76.24C10.2256 77.8 10.4656 79.48 10.5856 80.92L12.7456 76.6C12.0256 76.6 11.4256 76.48 10.8256 76.36C10.4656 76.36 10.1056 76.36 9.62563 76.24ZM98.6038 92.44C97.6438 92.44 96.6838 92.32 95.9638 91.96C93.3238 90.76 92.1238 87.88 92.2438 83.08V82C92.2438 79.36 92.2438 77.68 91.2838 77.2C89.8438 76.24 85.5238 78.76 76.7638 84.04C71.9638 87.04 65.4838 90.28 61.1637 90.28C60.4437 90.28 59.9637 90.28 59.3637 90.16C58.2837 89.8 57.3237 89.2 56.8437 88.36C55.4037 85.84 57.4437 81.88 59.4837 78.88C62.1237 75.16 66.0838 71.08 70.2838 67.6C70.7637 67.24 71.6038 67.36 71.9638 67.84C72.4438 68.32 72.3238 69.04 71.8438 69.52C67.7638 72.76 63.9238 76.72 61.5237 80.32C60.3237 82 59.4837 83.44 59.0037 84.76C58.7637 85.84 58.6437 86.68 58.8838 87.04C59.1237 87.4 59.4837 87.64 59.9637 87.76C62.7237 88.48 68.4838 86.32 75.5638 82C80.7238 78.88 84.3238 76.72 86.7238 75.64C89.4838 74.44 91.0438 74.32 92.4838 75.16C94.7638 76.36 94.6438 79 94.6438 82V83.08C94.5237 86.8 95.3638 88.96 96.9238 89.8C98.6038 90.52 101.484 89.92 105.204 87.88C110.004 85.48 116.124 80.8 123.684 74.32C124.164 73.84 124.884 73.84 125.364 74.44C125.844 74.92 125.724 75.64 125.244 76.12C112.524 87.16 103.884 92.44 98.6038 92.44ZM165.793 89.92C163.873 89.92 162.313 89.56 160.993 88.72C157.753 86.92 157.153 83.2 156.793 80.8C156.793 80.32 156.673 79.72 156.553 79.36C155.713 79.72 153.913 80.92 152.713 81.88C149.233 84.16 145.753 86.68 143.353 85.48C142.513 85.12 141.673 84.28 142.033 82.24C142.153 81.16 142.513 79.84 142.873 78.64C143.233 77.68 143.593 76.6 143.713 75.76C143.833 75.04 143.833 74.68 143.713 74.56C143.473 74.56 142.513 74.68 140.353 75.76C138.433 76.48 136.153 77.68 133.753 78.88C126.073 82.84 122.472 84.52 120.672 83.8C120.192 83.68 119.712 83.32 119.592 82.84C119.112 81.64 119.592 80.08 121.512 77.2C122.832 74.92 124.873 72.4 126.673 69.88L126.793 69.76C127.272 69.16 127.993 69.16 128.473 69.52C129.073 69.88 129.193 70.6 128.713 71.2L128.593 71.32L123.793 78.04C122.472 79.96 121.992 81.04 121.872 81.52C122.352 81.4 123.433 81.16 125.473 80.32L132.673 76.72C135.313 75.52 137.713 74.2 139.873 73.24C142.633 72.04 144.073 71.8 145.033 72.4C146.953 73.72 146.113 76.6 145.153 79.36C144.913 80.32 144.553 81.28 144.433 82.12C144.313 82.96 144.313 83.2 144.313 83.32C144.673 83.44 145.273 83.56 146.953 82.72C148.273 82 149.833 80.92 151.273 79.84C154.152 77.8 156.073 76.48 157.633 77.08C158.713 77.56 158.953 78.88 159.193 80.44C159.553 82.6 159.913 85.36 162.193 86.68C164.593 88.12 168.913 87.64 174.793 85.36C186.073 81.04 192.793 77.2 197.833 73.96C198.433 73.72 199.153 73.84 199.513 74.32C199.873 74.92 199.753 75.64 199.153 76C193.993 79.24 187.153 83.2 175.753 87.64C171.673 89.08 168.433 89.92 165.793 89.92ZM221.375 85C219.455 85 217.775 84.64 216.575 83.92C214.055 82.48 213.935 79.6 214.415 77.2C212.255 78.52 209.015 80.2 204.335 81.28C202.295 81.76 200.735 81.88 199.415 81.64C197.615 81.4 196.775 80.44 196.535 79.6C195.335 77.08 197.735 73.12 202.895 69.52C209.375 64.96 213.695 64.96 215.135 67C215.855 67.96 215.735 69.64 214.055 70.96C213.455 71.32 212.735 71.2 212.375 70.6C211.895 70.12 212.015 69.4 212.615 68.92C212.975 68.68 213.095 68.44 213.095 68.44C213.095 68.32 212.855 68.2 212.615 68.2C211.895 68.08 209.375 67.96 204.335 71.44C201.575 73.48 200.135 75.04 199.415 76.12C198.575 77.32 198.455 78.28 198.695 78.64C198.935 79.12 200.255 79.84 203.735 79C212.495 76.84 215.975 73.12 215.975 73C216.455 72.52 217.055 72.52 217.535 72.88C218.135 73.24 218.255 73.84 218.015 74.44C217.895 74.44 215.015 80.2 217.775 81.88C219.575 82.96 223.655 82.84 228.215 81.4C233.375 79.96 238.295 77.32 241.775 74.2C242.255 73.84 243.095 73.84 243.455 74.32C243.935 74.8 243.935 75.52 243.335 76C239.615 79.36 234.335 82.12 228.935 83.8C226.175 84.52 223.535 85 221.375 85ZM289.678 91.36C282.478 91.36 278.518 87.52 275.038 84.28C272.038 81.4 269.398 79 265.438 79C262.318 79 254.518 82.6 247.798 85.6C236.877 90.64 232.797 92.2 231.237 90.64C230.757 90.16 230.517 89.44 230.517 88.72C230.517 85.72 234.477 81.16 246.598 70C247.078 69.64 247.798 69.64 248.278 70.12C248.758 70.6 248.758 71.32 248.278 71.8C244.078 75.64 239.877 79.48 236.997 82.72C233.397 86.56 232.917 88.12 232.917 88.72C232.797 88.84 232.917 88.84 232.917 88.84C233.157 88.84 234.357 88.72 237.597 87.52C240.237 86.44 243.358 85 246.718 83.44C254.158 80.08 261.718 76.6 265.438 76.6C270.358 76.6 273.598 79.6 276.598 82.48C279.958 85.72 283.438 88.96 289.678 88.96C297.718 88.96 310.678 82.96 320.158 78.64C325.318 76.24 329.398 74.32 332.038 73.72C332.638 73.48 333.238 73.96 333.478 74.56C333.598 75.16 333.238 75.88 332.638 76C330.238 76.6 326.038 78.52 321.118 80.8C310.918 85.48 298.318 91.36 289.678 91.36ZM320.763 105.52C318.843 105.52 317.283 104.92 316.323 103.72C315.363 102.64 315.123 101.08 315.363 99.4C315.723 97.72 316.803 96.16 318.363 94.72C321.483 91.72 327.603 87.04 334.323 82.96L333.603 82C330.963 79 330.603 74.92 332.283 71.08C334.203 67.12 338.163 64.36 342.243 64.36C342.963 64.36 343.443 64.96 343.443 65.56C343.443 66.28 342.963 66.76 342.243 66.76C339.123 66.76 336.003 68.92 334.443 72.16C333.123 75.04 333.483 78.16 335.403 80.44C335.763 80.92 336.123 81.28 336.363 81.76C342.603 78.16 351.363 73.96 358.563 73.96C359.283 73.96 359.763 74.56 359.763 75.16C359.763 75.88 359.283 76.36 358.563 76.36C351.963 76.36 343.443 80.44 337.443 83.92C338.043 85.48 338.163 87.16 338.043 88.84C337.803 91.24 336.843 93.64 335.283 95.92C333.963 97.96 332.043 100 330.123 101.56C326.403 104.44 323.163 105.52 320.763 105.52ZM335.283 85.12C328.803 89.08 323.043 93.52 319.923 96.4C318.123 98.08 316.803 100.6 318.123 102.16C319.563 103.84 323.643 103.48 328.563 99.64C331.683 97.24 335.163 93.04 335.643 88.6C335.763 87.4 335.643 86.32 335.283 85.12ZM403.379 89.44C399.899 89.44 398.459 88.12 397.739 87.16C396.659 85.36 397.139 83.08 397.859 81.64C399.539 77.92 402.779 75.28 405.299 73.84C407.339 72.52 409.619 71.44 411.899 70.84C411.659 70.48 411.419 70.24 411.419 70C411.059 69.4 411.299 68.8 411.539 68.44C411.779 68.32 412.259 67.84 413.219 68.2C414.059 68.68 415.379 69.64 416.579 70.96C417.779 71.44 419.459 72.16 421.619 72.64C426.539 73.96 435.419 75.28 450.179 74.2C450.779 74.2 451.379 74.68 451.379 75.4C451.499 76 451.019 76.6 450.299 76.6C438.179 77.44 427.979 76.84 420.539 74.92L418.379 74.2C418.979 76.24 418.859 78.28 418.019 80.2C416.819 82.72 414.659 85.12 411.899 86.8C409.139 88.48 406.139 89.44 403.379 89.44ZM414.539 72.64C410.219 73.48 402.659 76.84 400.019 82.6C399.539 83.56 399.179 85 399.779 85.84C400.259 86.56 401.579 87.04 403.379 87.04C405.659 87.04 408.299 86.2 410.579 84.76C412.979 83.32 414.899 81.28 415.859 79.12C416.459 77.68 416.579 76.24 415.979 74.68C415.739 74.08 415.379 73.36 414.899 72.88C414.779 72.76 414.659 72.64 414.539 72.64ZM436.974 107.8C435.654 107.8 435.054 107.2 434.694 106.72C433.614 105.04 433.974 102.16 438.894 91.12C440.214 88 442.014 84.52 444.054 80.8C440.694 80.2 440.214 79.48 439.974 79.12C439.734 78.76 439.734 78.16 439.974 77.68C440.334 77.08 441.174 76.6 444.174 76.6C444.894 76.6 445.614 76.6 446.214 76.72C451.734 67 458.334 56.56 463.254 49.48C469.014 41.44 474.414 34.72 478.734 30.16C484.134 24.52 487.734 22.6 489.894 24.04C490.374 24.4 491.094 25 491.214 26.32C491.694 28.72 490.494 32.44 487.734 37.72C485.334 42.16 481.974 47.32 478.134 52.48C473.934 58.12 469.734 62.68 465.414 66.52C460.254 71.08 454.734 74.68 448.734 77.32C449.814 77.68 450.654 78.28 451.254 79C452.214 79 453.294 79 454.254 78.88C464.214 78.28 480.054 74.32 480.174 74.2C480.894 74.08 481.494 74.56 481.614 75.16C481.734 75.76 481.374 76.48 480.774 76.6C480.174 76.72 464.574 80.56 454.494 81.28C453.774 81.28 453.054 81.28 452.454 81.4C453.054 83.68 452.454 86.8 450.654 90.88C448.974 94.96 446.454 99.16 443.934 102.4C442.014 104.92 439.134 107.8 436.974 107.8ZM488.214 25.96C487.614 25.96 485.574 26.56 480.534 31.84C476.214 36.28 470.934 42.88 465.294 50.92C461.094 56.92 455.694 65.32 450.774 73.72C455.334 71.32 459.654 68.32 463.734 64.72C467.934 61 472.014 56.56 476.214 50.92C484.134 40.48 489.534 30.28 488.934 26.8C488.814 26.2 488.574 26.08 488.454 26.08C488.454 26.08 488.454 25.96 488.214 25.96ZM436.734 105.4H436.974C437.454 105.4 439.134 104.56 442.014 100.96C444.414 97.72 446.814 93.76 448.494 89.92C450.174 85.84 450.654 83.08 449.934 81.4L446.574 81.16C444.414 85.12 442.494 88.96 441.054 92.08C439.014 96.64 437.694 99.88 437.094 102.16C436.374 104.68 436.614 105.28 436.734 105.4ZM165.692 321.68C165.452 321.68 165.332 321.68 165.092 321.56C164.492 321.32 164.252 320.6 164.612 320L167.972 313.76C161.972 313.52 155.852 312.44 150.572 310.52C144.332 308.24 139.892 305.12 137.732 301.52C137.372 300.92 137.612 300.2 138.092 299.84C138.692 299.48 139.412 299.6 139.772 300.2C141.692 303.32 145.772 306.2 151.412 308.24C156.812 310.16 163.172 311.24 169.292 311.36C180.692 290.84 190.292 273.44 198.332 259.28L192.812 261.2C185.132 264.08 177.212 268.16 170.492 272.6C169.892 272.96 169.052 272.84 168.692 272.24C168.332 271.76 168.572 271.04 169.052 270.68C176.012 266 184.172 261.92 191.972 258.92C194.732 257.96 197.372 257.12 200.012 256.4C203.732 249.68 207.212 243.8 210.212 238.76C210.572 238.16 211.292 237.92 211.892 238.28C212.492 238.64 212.612 239.36 212.252 239.96C209.612 244.52 206.492 249.68 203.252 255.56C207.332 254.6 211.052 254.12 214.412 254.12C221.132 254.12 226.052 255.8 229.052 259.16C231.812 262.04 232.772 266 232.292 270.92C231.812 275.36 230.012 280.28 226.892 285.08C223.652 290.12 219.332 294.92 214.172 299C208.412 303.44 202.052 307.04 194.972 309.56C187.292 312.32 179.132 313.64 170.612 313.76L166.652 321.08C166.532 321.56 166.052 321.68 165.692 321.68ZM171.932 311.36C179.612 311.12 187.172 309.8 194.252 307.28C200.972 304.88 207.212 301.4 212.612 297.08C222.452 289.4 229.052 279.32 229.892 270.68C230.372 266.48 229.412 263.12 227.372 260.72C224.732 257.96 220.412 256.52 214.412 256.52C210.572 256.52 206.252 257.12 201.572 258.32C193.532 272.6 183.572 290.24 171.932 311.36ZM256.414 305C254.494 305 252.814 304.64 251.614 303.92C249.094 302.48 248.974 299.6 249.454 297.2C247.294 298.52 244.054 300.2 239.374 301.28C237.334 301.76 235.774 301.88 234.454 301.64C232.654 301.4 231.814 300.44 231.574 299.6C230.374 297.08 232.774 293.12 237.934 289.52C244.414 284.96 248.734 284.96 250.174 287C250.894 287.96 250.774 289.64 249.094 290.96C248.494 291.32 247.774 291.2 247.414 290.6C246.934 290.12 247.054 289.4 247.654 288.92C248.014 288.68 248.134 288.44 248.134 288.44C248.134 288.32 247.894 288.2 247.654 288.2C246.934 288.08 244.414 287.96 239.374 291.44C236.614 293.48 235.174 295.04 234.454 296.12C233.614 297.32 233.494 298.28 233.734 298.64C233.974 299.12 235.294 299.84 238.774 299C247.534 296.84 251.014 293.12 251.014 293C251.494 292.52 252.094 292.52 252.574 292.88C253.174 293.24 253.294 293.84 253.054 294.44C252.934 294.44 250.054 300.2 252.814 301.88C254.614 302.96 258.694 302.84 263.254 301.4C268.414 299.96 273.334 297.32 276.814 294.2C277.294 293.84 278.134 293.84 278.494 294.32C278.974 294.8 278.974 295.52 278.374 296C274.654 299.36 269.374 302.12 263.974 303.8C261.214 304.52 258.574 305 256.414 305ZM277.797 310.76C277.557 310.76 277.437 310.64 277.197 310.64C275.757 310.16 275.157 308 275.397 303.8C275.637 300.08 276.597 295.28 278.157 290.48C278.397 289.88 279.117 289.52 279.717 289.76C280.317 290 280.677 290.6 280.557 291.2C278.637 296.72 278.037 300.8 277.797 303.2C277.557 306.08 277.797 307.64 278.037 308.24C278.277 308 278.877 307.64 279.957 306.56L283.797 302.48C287.877 297.8 290.757 294.68 293.037 294.44C294.477 294.2 295.917 294.56 297.717 295.04C301.677 296 307.797 297.44 317.517 294.08C318.117 293.84 318.837 294.2 319.077 294.8C319.197 295.4 318.957 296.12 318.237 296.36C307.797 299.96 301.437 298.4 297.117 297.44C295.557 296.96 294.357 296.72 293.277 296.84C293.037 296.84 292.077 297.2 290.157 299C288.717 300.44 287.157 302.24 285.597 304.04C281.757 308.36 279.597 310.76 277.797 310.76ZM316.309 309.44C312.829 309.44 311.389 308.12 310.669 307.16C309.589 305.36 310.069 303.08 310.789 301.64C312.469 297.92 315.709 295.28 318.229 293.84C320.269 292.52 322.549 291.44 324.829 290.84C324.589 290.48 324.349 290.24 324.349 290C323.989 289.4 324.229 288.8 324.469 288.44C324.709 288.32 325.189 287.84 326.149 288.2C326.989 288.68 328.309 289.64 329.509 290.96C330.709 291.44 332.389 292.16 334.549 292.64C339.469 293.96 348.349 295.28 363.109 294.2C363.709 294.2 364.309 294.68 364.309 295.4C364.429 296 363.949 296.6 363.229 296.6C351.109 297.44 340.909 296.84 333.469 294.92L331.309 294.2C331.909 296.24 331.789 298.28 330.949 300.2C329.749 302.72 327.589 305.12 324.829 306.8C322.069 308.48 319.069 309.44 316.309 309.44ZM327.469 292.64C323.149 293.48 315.589 296.84 312.949 302.6C312.469 303.56 312.109 305 312.709 305.84C313.189 306.56 314.509 307.04 316.309 307.04C318.589 307.04 321.229 306.2 323.509 304.76C325.909 303.32 327.829 301.28 328.789 299.12C329.389 297.68 329.509 296.24 328.909 294.68C328.669 294.08 328.309 293.36 327.829 292.88C327.709 292.76 327.589 292.64 327.469 292.64ZM351.583 325.52C349.663 325.52 348.103 324.92 347.143 323.72C346.183 322.64 345.943 321.08 346.183 319.4C346.543 317.72 347.623 316.16 349.183 314.72C352.303 311.72 358.423 307.04 365.143 302.96L364.423 302C361.783 299 361.423 294.92 363.103 291.08C365.023 287.12 368.983 284.36 373.063 284.36C373.783 284.36 374.263 284.96 374.263 285.56C374.263 286.28 373.783 286.76 373.063 286.76C369.943 286.76 366.823 288.92 365.263 292.16C363.943 295.04 364.303 298.16 366.223 300.44C366.583 300.92 366.943 301.28 367.183 301.76C373.423 298.16 382.183 293.96 389.383 293.96C390.103 293.96 390.583 294.56 390.583 295.16C390.583 295.88 390.103 296.36 389.383 296.36C382.783 296.36 374.263 300.44 368.263 303.92C368.863 305.48 368.983 307.16 368.863 308.84C368.623 311.24 367.663 313.64 366.103 315.92C364.783 317.96 362.863 320 360.943 321.56C357.223 324.44 353.983 325.52 351.583 325.52ZM366.103 305.12C359.623 309.08 353.863 313.52 350.743 316.4C348.943 318.08 347.623 320.6 348.943 322.16C350.383 323.84 354.463 323.48 359.383 319.64C362.503 317.24 365.983 313.04 366.463 308.6C366.583 307.4 366.463 306.32 366.103 305.12Z" fill="black"/>
<line x1="16" y1="179.5" x2="511" y2="179.5" stroke="black"/>
</svg>
